<svg id="Layer_1" data-name="Layer 1" xmlns="http://www.w3.org/2000/svg" viewBox="0 0 150 35.25"><defs><style>.cls-1{fill:#636467;}.cls-2{fill:#79b943;}.cls-3{fill:#89c649;}</style></defs><title>LandisGyr</title><path class="cls-1" d="M24.73,19.16V20a3.16,3.16,0,0,1-3.46,3.16H20.9c-2.11,0-2.79-.18-2.82-1.88,0,0,0,0,0-.06,0-1.47.61-2.07,2.74-2.09Zm2.09-9a5.14,5.14,0,0,0-4.13-1.48H16.86v3.71h5.59c1.86,0,2.22.51,2.25,1.91V15.7H21a6.81,6.81,0,0,0-4.7,1.39,5.53,5.53,0,0,0-1.53,4.27c0,2.16.49,3.54,1.43,4.35a6,6,0,0,0,4,1.07c.39,0,.79,0,1.21,0a4.21,4.21,0,0,0,3.53-2v1.65h3.11V14.8c0-2.13-.38-3.68-1.27-4.69Z"/><path class="cls-1" d="M43.4,9.61a6,6,0,0,0-4-1.19l-.65,0A4,4,0,0,0,35,10.63v-2H31.85V26.43H35.2V16.16c0-3.94,2.6-3.89,3.48-3.91h.13c1.34,0,1.95.21,2.4.7a3.81,3.81,0,0,1,.66,2.59V26.43h3.29V14.76c0-2.62-.68-4.22-1.76-5.15Z"/><path class="cls-1" d="M51.93,16.16c0-2.32.12-3.92,2.59-3.93,3.29,0,3.91,1,3.94,2.94v3.54c0,3.95-2.33,4.3-3.49,4.32-1.85,0-3-.17-3-2.75V16.16ZM58.42,1V9.58a5.36,5.36,0,0,0-3.78-1.14,6.8,6.8,0,0,0-4.2,1.07c-1.13.87-1.86,2.42-1.86,5v5.75A6.93,6.93,0,0,0,50,25.14a5.8,5.8,0,0,0,4.48,1.56h.76a3.59,3.59,0,0,0,3.43-1.92v1.65h3.11V1Z"/><path class="cls-1" d="M87.84,21a5.17,5.17,0,0,0-2-4.47,7.16,7.16,0,0,0-3.12-.88l-1,0c-3-.08-3.28-1-3.31-1.77v0a1.53,1.53,0,0,1,.39-.95c.5-.49,1.28-.47,2.28-.48h5.58V8.66H81c-4.21,0-5.78,2.44-5.8,4.74v.15c0,2.5.75,3.44,1.5,4.09,1.19,1.05,3.11,1.38,6,1.47a2.64,2.64,0,0,1,1.42.46,1.54,1.54,0,0,1,.58,1.3,1.62,1.62,0,0,1,0,.21c-.14,1.52-1,1.62-2.6,1.64h-6.3v3.71h6.73a6,6,0,0,0,3.28-.9A5.2,5.2,0,0,0,87.84,21v0Z"/><path class="cls-1" d="M67.66,3V6.55h3.77V3Zm3.79,5.64V26.41H68.06V12.34H65.71V8.64Z"/><path class="cls-1" d="M6.33,22.69c-.84,0-1.9-.16-1.9-1.45V3H1V21.33c0,3.27,1.85,5.1,4.92,5.11h6V22.69Z"/><polygon class="cls-2" points="100.42 14.93 100.43 6.38 97.66 6.38 97.66 14.93 89.72 14.93 89.72 17.99 97.66 17.99 97.66 26.78 100.43 26.78 100.43 17.99 108.15 17.99 108.15 14.93 100.42 14.93 100.42 14.93"/><path class="cls-1" d="M148.23,9.28a3.85,3.85,0,0,0-3.81,2.12V9.47h-3V26.79h3.26v-10c0-3.45,1.8-3.79,3.67-3.81h.91V9.28Z"/><path class="cls-1" d="M135.87,9.3l-3.28,13.45L128.44,9.29h-3.36l5.2,17.35h1.44l-.54,2.16a2.83,2.83,0,0,1-2.9,1.8h-1.42v3.68h1.45c2.88,0,4.55-1.15,5.48-3.48a39.42,39.42,0,0,0,1-3.83l.54-2.21c0-.12,3.69-15.07,3.69-15.17V9.28l-3.18,0Z"/><path class="cls-1" d="M116.83,13v3.64h3.78v5.56c-1.06,1-1.62,1.15-3.67,1.15h-.09a3.24,3.24,0,0,1-2.74-1,3,3,0,0,1-.65-2.11V10.68a3.43,3.43,0,0,1,.6-2.35,2.65,2.65,0,0,1,2.06-.65l.75,0h4.75V4H117a8.06,8.06,0,0,0-4.73,1.15c-1.32.93-2.2,2.6-2.2,5.42V20.59c0,5.62,4,6.35,7.22,6.36h.06c3.83,0,4.92-1.07,6.57-3.12l0,0V13Z"/><path class="cls-1" d="M24.73,19.16V20a3.16,3.16,0,0,1-3.46,3.16H20.9c-2.11,0-2.79-.18-2.82-1.88,0,0,0,0,0-.06,0-1.47.61-2.07,2.74-2.09Zm2.09-9a5.14,5.14,0,0,0-4.13-1.48H16.86v3.71h5.59c1.86,0,2.22.51,2.25,1.91V15.7H21a6.81,6.81,0,0,0-4.7,1.39,5.53,5.53,0,0,0-1.53,4.27c0,2.16.49,3.54,1.43,4.35a6,6,0,0,0,4,1.07c.39,0,.79,0,1.21,0a4.21,4.21,0,0,0,3.53-2v1.65h3.11V14.8c0-2.13-.38-3.68-1.27-4.69Z"/><path class="cls-1" d="M43.4,9.61a6,6,0,0,0-4-1.19l-.65,0A4,4,0,0,0,35,10.63v-2H31.85V26.43H35.2V16.16c0-3.94,2.6-3.89,3.48-3.91h.13c1.34,0,1.95.21,2.4.7a3.81,3.81,0,0,1,.66,2.59V26.43h3.29V14.76c0-2.62-.68-4.22-1.76-5.15Z"/><path class="cls-1" d="M51.93,16.16c0-2.32.12-3.92,2.59-3.93,3.29,0,3.91,1,3.94,2.94v3.54c0,3.95-2.33,4.3-3.49,4.32-1.85,0-3-.17-3-2.75V16.16ZM58.42,1V9.58a5.36,5.36,0,0,0-3.78-1.14,6.8,6.8,0,0,0-4.2,1.07c-1.13.87-1.86,2.42-1.86,5v5.75A6.93,6.93,0,0,0,50,25.14a5.8,5.8,0,0,0,4.48,1.56h.76a3.59,3.59,0,0,0,3.43-1.92v1.65h3.11V1Z"/><path class="cls-1" d="M87.84,21a5.17,5.17,0,0,0-2-4.47,7.16,7.16,0,0,0-3.12-.88l-1,0c-3-.08-3.28-1-3.31-1.77v0a1.53,1.53,0,0,1,.39-.95c.5-.49,1.28-.47,2.28-.48h5.58V8.66H81c-4.21,0-5.78,2.44-5.8,4.74v.15c0,2.5.75,3.44,1.5,4.09,1.19,1.05,3.11,1.38,6,1.47a2.64,2.64,0,0,1,1.42.46,1.54,1.54,0,0,1,.58,1.3,1.62,1.62,0,0,1,0,.21c-.14,1.52-1,1.62-2.6,1.64h-6.3v3.71h6.73a6,6,0,0,0,3.28-.9A5.2,5.2,0,0,0,87.84,21v0Z"/><path class="cls-1" d="M67.66,3V6.55h3.77V3Zm3.79,5.64V26.41H68.06V12.34H65.71V8.64Z"/><path class="cls-1" d="M6.33,22.69c-.84,0-1.9-.16-1.9-1.45V3H1V21.33c0,3.27,1.85,5.1,4.92,5.11h6V22.69Z"/><polygon class="cls-3" points="100.42 14.93 100.43 6.38 97.66 6.38 97.66 14.93 89.72 14.93 89.72 17.99 97.66 17.99 97.66 26.78 100.43 26.78 100.43 17.99 108.15 17.99 108.15 14.93 100.42 14.93 100.42 14.93"/><path class="cls-1" d="M148.23,9.28a3.85,3.85,0,0,0-3.81,2.12V9.47h-3V26.79h3.26v-10c0-3.45,1.8-3.79,3.67-3.81h.91V9.28Z"/><path class="cls-1" d="M135.87,9.3l-3.28,13.45L128.44,9.29h-3.36l5.2,17.35h1.44l-.54,2.16a2.83,2.83,0,0,1-2.9,1.8h-1.42v3.68h1.45c2.88,0,4.55-1.15,5.48-3.48a39.42,39.42,0,0,0,1-3.83l.54-2.21c0-.12,3.69-15.07,3.69-15.17V9.28l-3.18,0Z"/><path class="cls-1" d="M116.83,13v3.64h3.78v5.56c-1.06,1-1.62,1.15-3.67,1.15h-.09a3.24,3.24,0,0,1-2.74-1,3,3,0,0,1-.65-2.11V10.68a3.43,3.43,0,0,1,.6-2.35,2.65,2.65,0,0,1,2.06-.65l.75,0h4.75V4H117a8.06,8.06,0,0,0-4.73,1.15c-1.32.93-2.2,2.6-2.2,5.42V20.59c0,5.62,4,6.35,7.22,6.36h.06c3.83,0,4.92-1.07,6.57-3.12l0,0V13Z"/></svg>