<svg id="Layer_1" data-name="Layer 1" xmlns="http://www.w3.org/2000/svg" viewBox="0 0 293.81 792"><defs><style>.cls-1{fill:#4e4f53;}.cls-2{fill:#7ab943;}.cls-3{opacity:0.2;}</style></defs><title>LandisGyrSide1</title><polygon class="cls-1" points="17.77 -1.19 289.13 -0.81 143.97 795.26 17.77 795.26 17.77 -1.19"/><polygon class="cls-2" points="-2.16 -1.19 269.19 -0.81 124.03 793.9 -2.16 793.9 -2.16 -1.19"/><g class="cls-3"><path class="cls-1" d="M57.24,257.48h1.48c1.89,0,5.34,1.13,5.41,5.92V264c0,3.59-.31,4.76-3.2,4.82h-.12c-2.51,0-3.53-1-3.57-4.67v-6.71Zm-15.47-3.57c-1.74,1.51-2.52,3.83-2.52,7v10h6.33v-9.55c.05-3.18.88-3.79,3.28-3.83h2.47v6.32c0,3.58.77,6.24,2.38,8s4.06,2.63,7.29,2.63c3.7,0,6-.84,7.45-2.46s1.82-3.95,1.82-6.89c0-.67,0-1.35-.06-2.07a7.23,7.23,0,0,0-3.37-6h2.83v-5.32H49.78c-3.63,0-6.28.66-8,2.18Z"/><path class="cls-1" d="M40.91,225.57c-1.58,1.85-2,4.32-2,6.87,0,.37,0,.74,0,1.1a6.92,6.92,0,0,0,3.74,6.35H39.27v5.42h30.4v-5.72H52.12c-6.74,0-6.65-4.44-6.68-6v-.22c0-2.3.34-3.34,1.2-4.1s2.21-1.14,4.41-1.14H69.67v-5.63H49.73c-4.48,0-7.22,1.18-8.82,3Z"/><path class="cls-1" d="M52.12,211c-4,0-6.7-.21-6.72-4.43,0-5.61,1.71-6.69,5-6.72h6c6.76,0,7.36,4,7.39,5.95,0,3.17-.29,5.16-4.71,5.2Zm-26-11.1H40.87c-1.29,1.44-2,3.47-1.95,6.47,0,2.65.34,5.23,1.83,7.17s4.13,3.18,8.57,3.18h9.83c3.73,0,6.49-.78,8.31-2.47s2.67-4.22,2.67-7.67v-1.3a6.13,6.13,0,0,0-3.28-5.85h2.82V194.1H26.15v5.79Z"/><path class="cls-1" d="M60.31,149.62c-4.24,0-6.8,2.07-7.63,3.47a12.22,12.22,0,0,0-1.5,5.35c0,.58-.08,1.62-.08,1.63-.14,5.17-1.62,5.62-3,5.66H48a2.54,2.54,0,0,1-1.63-.66c-.84-.87-.81-2.19-.83-3.91v-9.53H39.29v9.71c0,7.2,4.17,9.88,8.1,9.92h.27c4.26,0,5.88-1.28,7-2.56,1.8-2,2.36-5.32,2.51-10.21a4.63,4.63,0,0,1,.78-2.41,2.66,2.66,0,0,1,2.23-1,2.18,2.18,0,0,1,.35,0c2.6.23,2.77,1.64,2.8,4.43,0,.49,0,1,0,1.57v9.21h6.33V158.8a10.15,10.15,0,0,0-1.53-5.59c-1.75-2.46-4.34-3.58-7.74-3.59Z"/><path class="cls-1" d="M29.63,184.11h6.06v-6.44H29.63v6.44Zm9.64-6.48H69.64v5.79H45.58v4H39.27v-9.8Z"/><path class="cls-1" d="M63.28,288.93c0,1.43-.27,3.24-2.48,3.24H29.63v5.92H61c5.59,0,8.72-3.16,8.73-8.41v-10.3H63.28v9.55Z"/><polygon class="cls-1" points="50.01 128.11 35.4 128.1 35.4 132.83 50.01 132.83 50.01 146.39 55.24 146.39 55.24 132.83 70.27 132.83 70.27 128.1 55.24 128.1 55.24 114.89 50.01 114.89 50.01 128.11 50.01 128.11"/><path class="cls-1" d="M40.36,46.39c0,3.06,1,5,3.63,6.52H40.68v5.2h29.6V52.54H53.22c-5.89,0-6.46-3.08-6.5-6.28V44.7H40.36v1.7Z"/><path class="cls-1" d="M40.39,67.52l23,5.62-23,7.08V86L70,77.08V74.63l3.67.91c1.64.52,3.08,2.23,3.09,5v2.42h6.29V80.45c0-4.93-2-7.78-6-9.37a63.35,63.35,0,0,0-6.55-1.76l-3.77-.92c-.21-.05-25.77-6.31-25.93-6.31h-.53l0,5.43Z"/><path class="cls-1" d="M46.77,100.06H53V93.61h9.5c1.64,1.81,2,2.77,2,6.27V100c0,2.59-.66,3.73-1.72,4.7a5.12,5.12,0,0,1-3.6,1.1H42.75c-1.88,0-3.18-.27-4-1a4.53,4.53,0,0,1-1.11-3.53c0-.43,0-.86,0-1.27V91.88h-6.4v7.94c0,2.9.36,5.85,2,8.09s4.45,3.76,9.27,3.76H59.69c9.6,0,10.85-6.91,10.86-12.34v-.11c0-6.54-1.82-8.4-5.33-11.22l0,0-18.4,0v12.14Z"/><path class="cls-1" d="M57.24,257.48h1.48c1.89,0,5.34,1.13,5.41,5.92V264c0,3.59-.31,4.76-3.2,4.82h-.12c-2.51,0-3.53-1-3.57-4.67v-6.71Zm-15.47-3.57c-1.74,1.51-2.52,3.83-2.52,7v10h6.33v-9.55c.05-3.18.88-3.79,3.28-3.83h2.47v6.32c0,3.58.77,6.24,2.38,8s4.06,2.63,7.29,2.63c3.7,0,6-.84,7.45-2.46s1.82-3.95,1.82-6.89c0-.67,0-1.35-.06-2.07a7.23,7.23,0,0,0-3.37-6h2.83v-5.32H49.78c-3.63,0-6.28.66-8,2.18Z"/><path class="cls-1" d="M40.91,225.57c-1.58,1.85-2,4.32-2,6.87,0,.37,0,.74,0,1.1a6.92,6.92,0,0,0,3.74,6.35H39.27v5.42h30.4v-5.72H52.12c-6.74,0-6.65-4.44-6.68-6v-.22c0-2.3.34-3.34,1.2-4.1s2.21-1.14,4.41-1.14H69.67v-5.63H49.73c-4.48,0-7.22,1.18-8.82,3Z"/><path class="cls-1" d="M52.12,211c-4,0-6.7-.21-6.72-4.43,0-5.61,1.71-6.69,5-6.72h6c6.76,0,7.36,4,7.39,5.95,0,3.17-.29,5.16-4.71,5.2Zm-26-11.1H40.87c-1.29,1.44-2,3.47-1.95,6.47,0,2.65.34,5.23,1.83,7.17s4.13,3.18,8.57,3.18h9.83c3.73,0,6.49-.78,8.31-2.47s2.67-4.22,2.67-7.67v-1.3a6.13,6.13,0,0,0-3.28-5.85h2.82V194.1H26.15v5.79Z"/><path class="cls-1" d="M60.31,149.62c-4.24,0-6.8,2.07-7.63,3.47a12.22,12.22,0,0,0-1.5,5.35c0,.58-.08,1.62-.08,1.63-.14,5.17-1.62,5.62-3,5.66H48a2.54,2.54,0,0,1-1.63-.66c-.84-.87-.81-2.19-.83-3.91v-9.53H39.29v9.71c0,7.2,4.17,9.88,8.1,9.92h.27c4.26,0,5.88-1.28,7-2.56,1.8-2,2.36-5.32,2.51-10.21a4.63,4.63,0,0,1,.78-2.41,2.66,2.66,0,0,1,2.23-1,2.18,2.18,0,0,1,.35,0c2.6.23,2.77,1.64,2.8,4.43,0,.49,0,1,0,1.57v9.21h6.33V158.8a10.15,10.15,0,0,0-1.53-5.59c-1.75-2.46-4.34-3.58-7.74-3.59Z"/><path class="cls-1" d="M29.63,184.11h6.06v-6.44H29.63v6.44Zm9.64-6.48H69.64v5.79H45.58v4H39.27v-9.8Z"/><path class="cls-1" d="M63.28,288.93c0,1.43-.27,3.24-2.48,3.24H29.63v5.92H61c5.59,0,8.72-3.16,8.73-8.41v-10.3H63.28v9.55Z"/><polygon class="cls-1" points="50.01 128.11 35.4 128.1 35.4 132.83 50.01 132.83 50.01 146.39 55.24 146.39 55.24 132.83 70.27 132.83 70.27 128.1 55.24 128.1 55.24 114.89 50.01 114.89 50.01 128.11 50.01 128.11"/><path class="cls-1" d="M40.36,46.39c0,3.06,1,5,3.63,6.52H40.68v5.2h29.6V52.54H53.22c-5.89,0-6.46-3.08-6.5-6.28V44.7H40.36v1.7Z"/><path class="cls-1" d="M40.39,67.52l23,5.62-23,7.08V86L70,77.08V74.63l3.67.91c1.64.52,3.08,2.23,3.09,5v2.42h6.29V80.45c0-4.93-2-7.78-6-9.37a63.35,63.35,0,0,0-6.55-1.76l-3.77-.92c-.21-.05-25.77-6.31-25.93-6.31h-.53l0,5.43Z"/><path class="cls-1" d="M46.77,100.06H53V93.61h9.5c1.64,1.81,2,2.77,2,6.27V100c0,2.59-.66,3.73-1.72,4.7a5.12,5.12,0,0,1-3.6,1.1H42.75c-1.88,0-3.18-.27-4-1a4.53,4.53,0,0,1-1.11-3.53c0-.43,0-.86,0-1.27V91.88h-6.4v7.94c0,2.9.36,5.85,2,8.09s4.45,3.76,9.27,3.76H59.69c9.6,0,10.85-6.91,10.86-12.34v-.11c0-6.54-1.82-8.4-5.33-11.22l0,0-18.4,0v12.14Z"/></g></svg>